<svg id="Layer_1" enable-background="new 0 0 511.926 511.926" height="512" viewBox="0 0 511.926 511.926" width="512" xmlns="http://www.w3.org/2000/svg"><g><path d="m221.349 85.669c.221 0 .443-.005.666-.014l30.438-1.288 17.916 17.899v-6.385c0-5.521 2.949-10.622 7.734-13.382l10.288-5.934-14.337-14.324v-29.214c-.817-20.503-30.126-20.487-30.935 0v20.803l-22.413.948c-8.534.361-15.161 7.566-14.799 16.093.351 8.304 7.2 14.798 15.442 14.798z"/><path d="m231.832 137.889c0 8.534 6.925 15.453 15.468 15.453h23.07v-30.905h-23.07c-8.543-.001-15.468 6.918-15.468 15.452z"/><path d="m219.799 219.494 22.385 1.451-.468 20.797c-.192 8.532 6.576 15.605 15.116 15.796.119.003.236.004.354.004 8.38-.001 15.267-6.692 15.457-15.105l.658-29.207 14.832-14.166-10.029-5.785c-4.785-2.76-7.734-7.862-7.734-13.382v-6.624l-18.166 17.351-30.402-1.971c-20.525-.508-22.421 28.702-2.003 30.841z"/><path d="m358.667 390.815c18.645 0 33.76-15.1 33.76-33.727v-136.813l-26.026 15.012c-4.785 2.761-10.682 2.761-15.468 0l-26.027-15.012v136.813c.001 18.627 15.116 33.727 33.761 33.727z"/><path d="m301.305 104.803v66.172l54.537 31.456h5.651l54.536-31.456v-66.172l-57.361-33.086zm72.83 33.086c0 8.534-6.925 15.453-15.468 15.453-20.518-.814-20.512-30.094 0-30.905 8.543-.001 15.468 6.917 15.468 15.452z"/><path d="m350.934 40.491c4.785-2.761 10.682-2.761 15.468 0l7.734 4.461v-29.577c-.817-20.503-30.126-20.487-30.935 0v29.577z"/><path d="m497.533 56.267-22.385-1.451.468-20.798c.192-8.532-6.576-15.604-15.116-15.796-8.586-.168-15.62 6.569-15.811 15.102l-.657 29.207-14.843 14.177 10.041 5.792c4.785 2.76 7.734 7.862 7.734 13.382v6.605l18.165-17.349 30.402 1.971c20.499.512 22.457-28.672 2.002-30.842z"/><path d="m358.667 421.72c-7.437 0-14.577-1.276-21.233-3.594-10.546 23.923-34.484 40.674-62.286 40.674h-8.533c-52.418 0-95.064-42.604-95.064-94.972v-15.011c-9.88 2.354-21.055 2.354-30.935 0v15.011c0 1.967.052 3.921.141 5.866-43.602-7.219-80.419-48.616-79.476-93.076v-70.23c-9.88 2.354-21.055 2.354-30.935 0v70.23c-1.358 63.153 53.484 120.457 116.091 125.051 7.076 22.378 20.251 42.074 37.572 57.13h-79.442c2.356 9.871 2.356 21.035 0 30.905h170.582c44.119 0 81.57-28.992 94.313-68.903-3.514.595-7.116.919-10.795.919z"/><path d="m495.317 190.106-30.437 1.288-17.916-17.898v6.401c0 5.521-2.949 10.622-7.734 13.382l-10.279 5.929 14.327 14.313v29.214c.817 20.503 30.126 20.487 30.935 0v-20.803l22.412-.948c8.534-.361 15.161-7.566 14.799-16.093-.36-8.527-7.566-15.146-16.107-14.785z"/><path d="m485.5 137.889c0-8.534-6.925-15.453-15.468-15.453h-23.069v30.905h23.069c8.543.001 15.468-6.918 15.468-15.452z"/><path d="m83.518 139.593c0-20.804-16.881-37.668-37.705-37.668-50.015 1.985-50.001 73.36 0 75.337 20.824-.001 37.705-16.865 37.705-37.669z"/><path d="m0 474.254c0 20.804 16.881 37.668 37.705 37.668 50.015-1.985 50.001-73.36 0-75.337-20.824 0-37.705 16.865-37.705 37.669z"/><path d="m193.788 282.022c0-20.804-16.881-37.668-37.705-37.668-50.015 1.985-50.001 73.36 0 75.337 20.824-.001 37.705-16.866 37.705-37.669z"/></g></svg>